Coordinates
version=1
nRows=14
nColumns=42
inDegrees=yes

Units are S.I. units (second, meters, Newtons, ...)
If the header above contains a line with 'inDegrees', this indicates whether rotational values are in degrees (yes) or radians (no).

endheader
time	pelvis_tilt	pelvis_list	pelvis_rotation	pelvis_tx	pelvis_ty	pelvis_tz	hip_flexion_r	hip_adduction_r	hip_rotation_r	knee_angle_r	knee_adduction_r	knee_angle_r_beta	ankle_angle_r	subtalar_angle_r	mtp_angle_r	hip_flexion_l	hip_adduction_l	hip_rotation_l	knee_angle_l	knee_adduction_l	knee_angle_l_beta	ankle_angle_l	subtalar_angle_l	mtp_angle_l	lumbar_extension	lumbar_bending	lumbar_rotation	arm_flex_r	arm_add_r	arm_rot_r	elbow_flex_r	pro_sup_r	wrist_flex_r	wrist_dev_r	arm_flex_l	arm_add_l	arm_rot_l	elbow_flex_l	pro_sup_l	wrist_flex_l	wrist_dev_l
      2.68000000	     -2.23845280	     -2.97699358	     -3.39622889	     -0.13865379	      1.24591338	     -0.61303822	      6.15773267	     -5.62135689	      2.36754982	     14.02808447	      1.18118870	      0.24483626	    -39.26421763	      0.00000000	      0.00000000	      8.32503776	     -6.55436657	     -7.14247499	     20.92781737	     -3.56903342	      0.36525932	    -29.40297697	      0.00000000	      0.00000000	     -2.19408042	      4.57858156	      3.00157813	     58.92770090	    -12.91411093	     27.72127855	     74.95277296	    102.13075631	      0.00000000	      0.00000000	     68.45424551	    -12.86304123	     44.77851126	     94.42919580	     83.46432154	      0.00000000	      0.00000000
      2.69000000	     -1.98133651	     -2.94925741	     -4.16658942	     -0.12849519	      1.27196490	     -0.61175876	      2.54228853	     -5.57281407	      4.84251434	      6.72944246	      0.95435054	      0.11745093	    -39.62622121	      0.00000000	      0.00000000	      4.65112615	     -6.45001542	     -6.71900379	     14.21104744	     -2.75422213	      0.24802957	    -36.68316989	      0.00000000	      0.00000000	     -0.98708242	      4.68938403	      3.83087427	     52.54006726	    -11.63290142	     25.21980760	     71.46744179	    102.22710211	      0.00000000	      0.00000000	     62.41846503	    -13.10343638	     44.38509195	     94.92762893	     83.54309358	      0.00000000	      0.00000000
      2.70000000	     -2.31563380	     -2.84448197	     -4.89713879	     -0.12031197	      1.29589443	     -0.61040206	      0.52705878	     -5.55363364	      5.41931487	      1.20978813	      0.26497649	      0.02111479	    -39.68918392	      0.00000000	      0.00000000	      2.33782042	     -6.43225841	     -7.17980878	      8.81318243	     -2.16397776	      0.15381905	    -39.12637324	      0.00000000	      0.00000000	      0.40241928	      4.75016468	      4.49271598	     46.88557065	    -10.03410966	     22.65332780	     67.18668292	    102.26650881	      0.00000000	      0.00000000	     56.41977328	    -13.43628867	     43.77372969	     95.09470209	     83.61773254	      0.00000000	      0.00000000
      2.71000000	     -3.62573302	     -2.41970954	     -6.18324244	     -0.11595651	      1.31734926	     -0.60868635	      2.02613086	     -5.69848960	      3.13155935	      0.19407155	      0.16348460	      0.00338719	    -39.60764431	      0.00000000	      0.00000000	      1.95179591	     -6.20910776	     -8.27014449	      5.02566776	     -1.70531449	      0.08771445	    -39.52609218	      0.00000000	      0.00000000	      2.24382285	      4.62842661	      5.86203584	     41.99097795	     -8.62491742	     19.64394212	     62.52435619	    101.90017816	      0.00000000	      0.00000000	     50.49494999	    -13.28033755	     42.60299164	     94.16049318	     83.71740592	      0.00000000	      0.00000000
      2.72000000	     -5.24948073	     -1.99166074	     -7.13421904	     -0.11327195	      1.33736680	     -0.60765248	      4.29942283	     -5.98856598	      0.57328316	      0.11388302	      0.89084546	      0.00198763	    -39.38480008	      0.00000000	      0.00000000	      2.48972964	     -6.23364133	     -6.88906093	      2.50000897	     -0.73354904	      0.04363339	    -39.64226046	      0.00000000	      0.00000000	      3.80873903	      4.66060915	      6.25694137	     38.30117032	     -6.74761672	     16.94301793	     56.85399758	    103.52576355	      0.00000000	      0.00000000	     44.35577228	    -13.83822586	     40.63120566	     93.43527373	     86.39167689	      0.00000000	      0.00000000
      2.73000000	     -6.18941495	     -1.48405978	     -7.65154088	     -0.11156114	      1.35687795	     -0.60755930	      5.80623993	     -6.55517917	     -2.89934363	      0.09555283	      1.98331115	      0.00166771	    -39.31691480	      0.00000000	      0.00000000	      3.13566413	     -6.07662984	     -5.21024249	      1.48974933	      0.22868264	      0.02600103	    -39.63292015	      0.00000000	      0.00000000	      4.19901565	      4.39017202	      6.97700574	     34.83497854	     -5.57797005	     13.33391732	     52.21176127	    102.61317231	      0.00000000	      0.00000000	     39.41391578	    -13.63275421	     39.28876051	     91.53741640	     85.94312950	      0.00000000	      0.00000000
      2.74000000	     -6.18329812	     -1.09044117	     -7.96576903	     -0.11038692	      1.37647975	     -0.60832120	      6.14370796	     -7.19122146	     -6.59651751	      0.09566218	      3.08213698	      0.00166962	    -39.43753907	      0.00000000	      0.00000000	      3.35220953	     -5.73948042	     -3.88918726	      1.56250136	      0.81871890	      0.02727079	    -39.61768119	      0.00000000	      0.00000000	      3.04931517	      4.11040988	      7.45016475	     32.28855964	     -4.57000778	      9.87452611	     47.54477236	    101.37864712	      0.00000000	      0.00000000	     35.17250631	    -13.61631440	     37.97853378	     89.34658281	     85.10143849	      0.00000000	      0.00000000
      2.75000000	     -5.60472372	     -0.87189066	     -8.10153013	     -0.11006277	      1.39566239	     -0.60957982	      5.74730987	     -7.48311187	     -8.63149053	      0.10500330	      3.55034042	      0.00183265	    -39.46194692	      0.00000000	      0.00000000	      3.48188501	     -5.22262868	     -3.60268211	      2.67815057	      0.78473092	      0.04674255	    -39.64015325	      0.00000000	      0.00000000	      0.88449191	      3.84741256	      7.91131583	     30.17550235	     -4.10124650	      6.59531768	     43.47052138	     99.84758811	      0.00000000	      0.00000000	     31.27544508	    -13.06152183	     35.58536935	     86.66781573	     84.13643327	      0.00000000	      0.00000000
      2.76000000	     -4.82282607	     -0.99496151	     -8.46256210	     -0.11088597	      1.41426838	     -0.60988132	      5.24710067	     -7.08057902	     -8.66420531	      0.12257391	      3.35026059	      0.00213932	    -39.44762636	      0.00000000	      0.00000000	      3.63073070	     -5.14303613	     -4.62023221	      4.42245508	      0.69046290	      0.07718640	    -39.65348689	      0.00000000	      0.00000000	     -1.75854990	      3.71695775	      8.86610859	     28.29287573	     -4.29321955	      4.18234484	     39.89793932	     98.43600145	      0.00000000	      0.00000000	     28.34174055	    -11.92743014	     33.22045678	     82.50473143	     83.38908912	      0.00000000	      0.00000000
      2.77000000	     -3.71229483	     -1.17237968	     -8.81304946	     -0.11192928	      1.43231138	     -0.61005668	      4.43601031	     -6.56010185	     -7.72002080	      0.14795947	      2.82098596	      0.00258238	    -39.47315378	      0.00000000	      0.00000000	      3.53057924	     -5.02775420	     -6.60980763	      6.26816108	      0.25044201	      0.10940005	    -39.65291158	      0.00000000	      0.00000000	     -4.92692915	      3.57764421	      9.48359686	     26.67972558	     -4.59028751	      2.83353872	     37.47465847	     90.87082557	      0.00000000	      0.00000000	     25.88541160	    -11.07926845	     31.06782528	     78.73909088	     79.98937295	      0.00000000	      0.00000000
      2.78000000	     -2.84852865	     -1.32201429	     -8.81622443	     -0.11342286	      1.44911774	     -0.61039231	      3.84820325	     -6.04305553	     -6.76707621	      0.19032452	      2.23413971	      0.00332179	    -39.50849623	      0.00000000	      0.00000000	      3.69659678	     -5.01955292	     -7.42295835	      7.85041155	      0.00340304	      0.13701553	    -39.63408002	      0.00000000	      0.00000000	     -7.89785259	      3.31218605	      9.67051944	     24.91864286	     -5.19035377	      2.04300078	     35.32560522	     90.20517117	      0.00000000	      0.00000000	     23.73337525	    -10.45393504	     29.05198647	     74.69983595	     79.09339784	      0.00000000	      0.00000000
      2.79000000	     -1.84855699	     -1.49696654	     -9.18057454	     -0.11461415	      1.46510787	     -0.60982140	      3.13491727	     -5.55501215	     -5.06142434	      0.27853789	      1.83721459	      0.00486140	    -39.54610305	      0.00000000	      0.00000000	      3.49360783	     -5.08522659	     -9.09589108	      8.99346109	     -0.34324930	      0.15696551	    -39.62449139	      0.00000000	      0.00000000	    -10.94100935	      2.88109120	     10.10772863	     23.18099179	     -5.71750274	      1.35678408	     33.40544108	     89.34867925	      0.00000000	      0.00000000	     21.83948654	     -9.97029517	     26.79731110	     70.87576474	     78.44712962	      0.00000000	      0.00000000
      2.80000000	     -1.88633558	     -1.35343005	     -8.86817402	     -0.11533048	      1.47810973	     -0.61124838	      3.43304939	     -5.58082252	     -3.75897941	      0.48736230	      1.96231458	      0.00850608	    -39.54944603	      0.00000000	      0.00000000	      4.62466176	     -4.75208405	     -9.73555105	     10.14487273	     -0.96167506	      0.17706143	    -39.60296231	      0.00000000	      0.00000000	    -12.56475484	      2.42955909	      9.63485085	     21.15888982	     -6.50829520	      1.90136995	     32.10797538	     85.89384753	      0.00000000	      0.00000000	     19.93412408	     -9.21618997	     24.09082672	     66.66527103	     80.90382052	      0.00000000	      0.00000000
      2.81000000	     -1.99008125	     -1.39540660	     -8.63646207	     -0.11589349	      1.48988962	     -0.61254363	      3.98060534	     -5.45625319	     -2.78278289	      1.16873995	      2.21086935	      0.02039836	    -39.53983349	      0.00000000	      0.00000000	      5.71343351	     -4.69954662	    -10.53848650	     11.15294556	     -1.43386884	      0.19465562	    -39.57019261	      0.00000000	      0.00000000	    -14.17385405	      2.33753869	      9.46868382	     18.88174994	     -5.97802676	     -4.09491172	     31.01160010	     90.83398605	      0.00000000	      0.00000000	     18.32218192	     -8.83204317	     22.10665830	     63.24164372	     81.23735117	      0.00000000	      0.00000000
